<svg id="color" height="512" viewBox="0 0 24 24" width="512" xmlns="http://www.w3.org/2000/svg"><path d="m19.25 8h-4.5c-.414 0-.75.336-.75.75v4.5c0 .414.336.75.75.75h4.5c.414 0 .75-.336.75-.75v-4.5c0-.414-.336-.75-.75-.75z" fill="#607d8b"/><path d="m17 13h-5.25c-.414 0-.75.336-.75.75v4.5c0 .414.336.75.75.75h5.25z" fill="#90a4ae"/><path d="m21.25 13h-4.75v6h4.75c.414 0 .75-.336.75-.75v-4.5c0-.414-.336-.75-.75-.75z" fill="#cfd8dc"/><path d="m10.671 6.87c.01-.12.02-.24.02-.37s-.01-.25-.02-.37l.83-.61c.5-.37.65-1.06.34-1.6l-.74-1.32c-.31-.56-.99-.78-1.56-.51l-.92.43c-.19-.13-.37-.24-.57-.34l-.1-1.07c-.06-.63-.58-1.11-1.21-1.11h-1.48c-.63 0-1.15.48-1.21 1.11l-.1 1.07c-.2.1-.38.21-.57.34l-.92-.43c-.57-.27-1.25-.04-1.56.51l-.74 1.32c-.31.54-.16 1.23.34 1.6l.83.61c-.01.12-.02.24-.02.37s.01.25.02.37l-.83.61c-.5.37-.65 1.06-.34 1.6l.74 1.32c.31.55.99.78 1.56.51l.92-.43c.19.13.37.24.57.34l.1 1.07c.06.63.58 1.11 1.21 1.11h1.48c.63 0 1.15-.48 1.21-1.11l.1-1.07c.2-.1.38-.21.57-.34l.92.43c.57.27 1.25.05 1.56-.51l.74-1.32c.31-.54.16-1.23-.34-1.6zm-2.17-.37c0 1.38-1.12 2.5-2.5 2.5s-2.5-1.12-2.5-2.5 1.12-2.5 2.5-2.5 2.5 1.12 2.5 2.5z" fill="#00bcd4"/><path d="m16.5 15.875h-5.5v2.375c0 .414.336.75.75.75h5.25-.5z" fill="#7d8f97"/><path d="m22 15.875h-5.5v3.125h.5 4.25c.414 0 .75-.336.75-.75z" fill="#b4bcc0"/><path d="m6.001 4c-1.38 0-2.5 1.12-2.5 2.5s1.12 2.5 2.5 2.5z" fill="#dedede"/><path d="m6.001 0h-.74c-.63 0-1.15.48-1.21 1.11l-.1 1.07c-.2.1-.38.21-.57.34l-.92-.43c-.162-.077-.333-.113-.502-.113-.425 0-.836.23-1.058.623l-.74 1.32c-.31.54-.16 1.23.34 1.6l.83.61c-.01.12-.02.24-.02.37s.01.25.02.37l-.83.61c-.5.37-.65 1.06-.34 1.6l.74 1.32c.222.394.633.623 1.058.623.169 0 .34-.036.502-.113l.92-.43c.19.13.37.24.57.34l.1 1.07c.06.63.58 1.11 1.21 1.11h.74v-4c-1.38 0-2.5-1.12-2.5-2.5s1.12-2.5 2.5-2.5z" fill="#00a4b9"/><path d="m21 18h-18c-1.654 0-3 1.346-3 3s1.346 3 3 3h18c1.654 0 3-1.346 3-3s-1.346-3-3-3z" fill="#607d8b"/><g fill="#cfd8dc"><path d="m4 20c-.551 0-1 .449-1 1s.449 1 1 1 1-.449 1-1-.449-1-1-1z"/><path d="m9 20c-.551 0-1 .449-1 1s.449 1 1 1 1-.449 1-1-.449-1-1-1z"/><circle cx="15" cy="21" r="1"/><circle cx="20" cy="21" r="1"/></g><path d="m4 22c-.551 0-1-.449-1-1s.449-1 1-1 1 .449 1 1-.449 1-1 1zm5 0c-.551 0-1-.449-1-1s.449-1 1-1 1 .449 1 1-.449 1-1 1zm3-4h-9c-1.654 0-3 1.346-3 3s1.346 3 3 3h9z" fill="#546d79"/><path d="m4 20c-.551 0-1 .449-1 1s.449 1 1 1 1-.449 1-1-.449-1-1-1z" fill="#b4bcc0"/><path d="m9 20c-.551 0-1 .449-1 1s.449 1 1 1 1-.449 1-1-.449-1-1-1z" fill="#b4bcc0"/></svg>